<svg width="300" height="300" viewBox="0 0 300 300" fill="none" xmlns="http://www.w3.org/2000/svg">
<circle cx="150" cy="150" r="150" fill="#D9D9D9"/>
<path d="M176.253 133H169.79L188.483 82.0909H194.847L213.54 133H207.077L191.864 90.1449H191.466L176.253 133ZM178.639 113.114H204.69V118.582H178.639V113.114Z" fill="#1B1B1B"/>
<path d="M170.915 243V240.085L188.792 213.399H170.72V209.836H193.585V212.751L175.708 239.438H193.78V243H170.915Z" fill="#070707"/>
<path d="M87.8334 237.167C88.4777 237.811 89.5223 237.811 90.1666 237.167L100.666 226.667C101.311 226.023 101.311 224.978 100.666 224.334C100.022 223.689 98.9773 223.689 98.333 224.334L89 233.667L79.667 224.334C79.0227 223.689 77.9781 223.689 77.3337 224.334C76.6894 224.978 76.6894 226.023 77.3337 226.667L87.8334 237.167ZM87.3501 63V149.5H90.6499V63H87.3501ZM87.3501 149.5L87.3501 236H90.6499L90.6499 149.5H87.3501Z" fill="#2300FA"/>
</svg>
