<svg width="300" height="300" viewBox="0 0 300 300" fill="none" xmlns="http://www.w3.org/2000/svg">
<circle cx="150" cy="150" r="150" fill="#D9D9D9"/>
<path d="M173.376 109H169.166L181.343 75.8364H185.489L197.666 109H193.456L183.545 81.083H183.286L173.376 109ZM174.931 96.0455H191.901V99.608H174.931V96.0455ZM171.835 237V233.165L195.358 198.051H171.58V193.364H201.665V197.199L178.142 232.312H201.92V237H171.835Z" fill="#1B1B1B"/>
<path d="M90.1666 61.8334C89.5223 61.1891 88.4777 61.1891 87.8334 61.8334L77.3337 72.333C76.6894 72.9773 76.6894 74.0219 77.3337 74.6663C77.9781 75.3106 79.0227 75.3106 79.667 74.6663L89 65.3333L98.333 74.6663C98.9773 75.3106 100.022 75.3106 100.666 74.6663C101.311 74.0219 101.311 72.9773 100.666 72.333L90.1666 61.8334ZM90.6499 236L90.6499 149.5H87.3501L87.3501 236H90.6499ZM90.6499 149.5L90.6499 63H87.3501L87.3501 149.5H90.6499Z" fill="#081EE0"/>
</svg>
